<?xml version="1.0" encoding="utf-8"?>
<!-- Svg Vector Icons : http://www.onlinewebfonts.com/icon -->
<!DOCTYPE svg PUBLIC "-//W3C//DTD SVG 1.1//EN" "http://www.w3.org/Graphics/SVG/1.1/DTD/svg11.dtd">
<svg version="1.1" xmlns="http://www.w3.org/2000/svg" xmlns:xlink="http://www.w3.org/1999/xlink" x="0px" y="0px" viewBox="0 0 1000 1000" enable-background="new 0 0 1000 1000" xml:space="preserve" fill="red">
<metadata> Svg Vector Icons : http://www.onlinewebfonts.com/icon </metadata>
<g><path d="M723.9,976H276c-61.8,0-112-50.1-112-111.8V276c0-15.5,12.6-28,28-28s28,12.5,28,28v588.2c0,30.7,25.1,55.8,56,55.8h447.9c30.9,0,56.1-25,56.1-55.8V276c0-15.5,12.6-28,28-28c15.4,0,28,12.5,28,28v588.2C836,925.9,785.7,976,723.9,976z"/><path d="M640,808c-15.4,0-28-12.5-28-28V388c0-15.5,12.6-28,28-28c15.5,0,28,12.5,28,28v392C668,795.5,655.4,808,640,808z M500,808c-15.4,0-28-12.5-28-28V388c0-15.5,12.6-28,28-28c15.4,0,28,12.5,28,28v392C528,795.5,515.4,808,500,808z M360,808c-15.5,0-28-12.5-28-28V388c0-15.5,12.5-28,28-28s28,12.5,28,28v392C388,795.5,375.4,808,360,808z M962,220H38c-15.4,0-28-12.5-28-28c0-15.5,12.5-28,28-28h266v-55.9c0-46.4,37.8-84.1,84.2-84.1h223.5c46.5,0,84.2,37.7,84.2,84.1V164h266c15.4,0,28,12.5,28,28C990,207.5,977.4,220,962,220z M360,164h280v-55.9c0-15.5-12.7-28.1-28.2-28.1H388.2c-15.6,0-28.2,12.6-28.2,28.1V164z"/></g>
</svg>